REM DIRINDEX 1\2,1\4,1\3\5,1\3\6,1\3\7
REM DIRNAME cjc082,folder01,folder02,folder03,folder04,folder05,folder06
TITLE ""
FILE "CD1Track18.mp3" MP3
  TRACK 01 AUDIO
    TITLE "0:"
    INDEX 01 00:00:00
  TRACK 02 AUDIO
    TITLE "4:cjc082_0282"
    INDEX 01 00:00:23
  TRACK 03 AUDIO
    TITLE "0:"
    INDEX 01 00:04:27
  TRACK 04 AUDIO
    TITLE "5:cjc082_0283"
    INDEX 01 00:05:03
  TRACK 05 AUDIO
    TITLE "0:"
    INDEX 01 00:06:12
  TRACK 06 AUDIO
    TITLE "6:cjc082_0284"
    INDEX 01 00:06:67
  TRACK 07 AUDIO
    TITLE "0:"
    INDEX 01 00:08:19
  TRACK 08 AUDIO
    TITLE "5:cjc082_0285"
    INDEX 01 00:08:66
  TRACK 09 AUDIO
    TITLE "0:"
    INDEX 01 00:10:10
  TRACK 10 AUDIO
    TITLE "6:cjc082_0286"
    INDEX 01 00:10:63
  TRACK 11 AUDIO
    TITLE "0:"
    INDEX 01 00:13:06
  TRACK 12 AUDIO
    TITLE "5:cjc082_0287"
    INDEX 01 00:13:53
  TRACK 13 AUDIO
    TITLE "0:"
    INDEX 01 00:15:07
  TRACK 14 AUDIO
    TITLE "6:cjc082_0288"
    INDEX 01 00:15:56
  TRACK 15 AUDIO
    TITLE "0:"
    INDEX 01 00:16:69
  TRACK 16 AUDIO
    TITLE "5:cjc082_0289"
    INDEX 01 00:17:39
  TRACK 17 AUDIO
    TITLE "0:"
    INDEX 01 00:19:03
  TRACK 18 AUDIO
    TITLE "6:cjc082_0290"
    INDEX 01 00:19:46
  TRACK 19 AUDIO
    TITLE "0:"
    INDEX 01 00:21:39
  TRACK 20 AUDIO
    TITLE "5:cjc082_0291"
    INDEX 01 00:22:09
  TRACK 21 AUDIO
    TITLE "0:"
    INDEX 01 00:23:28
  TRACK 22 AUDIO
    TITLE "6:cjc082_0292"
    INDEX 01 00:24:02
  TRACK 23 AUDIO
    TITLE "0:"
    INDEX 01 00:27:22
  TRACK 24 AUDIO
    TITLE "5:cjc082_0293"
    INDEX 01 00:27:67
  TRACK 25 AUDIO
    TITLE "0:"
    INDEX 01 00:29:13
  TRACK 26 AUDIO
    TITLE "6:cjc082_0294"
    INDEX 01 00:29:62
  TRACK 27 AUDIO
    TITLE "0:"
    INDEX 01 00:31:55
  TRACK 28 AUDIO
    TITLE "5:cjc082_0295"
    INDEX 01 00:32:25
  TRACK 29 AUDIO
    TITLE "0:"
    INDEX 01 00:34:04
  TRACK 30 AUDIO
    TITLE "6:cjc082_0296"
    INDEX 01 00:34:47
  TRACK 31 AUDIO
    TITLE "0:"
    INDEX 01 00:36:27
  TRACK 32 AUDIO
    TITLE "5:cjc082_0297"
    INDEX 01 00:36:72
  TRACK 33 AUDIO
    TITLE "0:"
    INDEX 01 00:38:39
  TRACK 34 AUDIO
    TITLE "6:cjc082_0298"
    INDEX 01 00:39:11
  TRACK 35 AUDIO
    TITLE "0:"
    INDEX 01 00:40:30
  TRACK 36 AUDIO
    TITLE "5:cjc082_0299"
    INDEX 01 00:41:08
  TRACK 37 AUDIO
    TITLE "0:"
    INDEX 01 00:42:25
  TRACK 38 AUDIO
    TITLE "6:cjc082_0300"
    INDEX 01 00:42:70
  TRACK 39 AUDIO
    TITLE "0:"
    INDEX 01 00:45:06
  TRACK 40 AUDIO
    TITLE "5:cjc082_0301"
    INDEX 01 00:45:51
  TRACK 41 AUDIO
    TITLE "0:"
    INDEX 01 00:46:72
  TRACK 42 AUDIO
    TITLE "6:cjc082_0302"
    INDEX 01 00:47:50
  TRACK 43 AUDIO
    TITLE "0:"
    INDEX 01 00:48:57
  TRACK 44 AUDIO
    TITLE "5:cjc082_0303"
    INDEX 01 00:49:31
  TRACK 45 AUDIO
    TITLE "0:"
    INDEX 01 00:50:39
  TRACK 46 AUDIO
    TITLE "6:cjc082_0304"
    INDEX 01 00:51:15
  TRACK 47 AUDIO
    TITLE "0:"
    INDEX 01 00:53:00
  TRACK 48 AUDIO
    TITLE "5:cjc082_0305"
    INDEX 01 00:53:51
  TRACK 49 AUDIO
    TITLE "0:"
    INDEX 01 00:55:18
  TRACK 50 AUDIO
    TITLE "6:cjc082_0306"
    INDEX 01 00:55:67
  TRACK 51 AUDIO
    TITLE "0:"
    INDEX 01 00:58:24
  TRACK 52 AUDIO
    TITLE "5:cjc082_0307"
    INDEX 01 00:58:73
  TRACK 53 AUDIO
    TITLE "0:"
    INDEX 01 01:00:19
  TRACK 54 AUDIO
    TITLE "6:cjc082_0308"
    INDEX 01 01:00:70
  TRACK 55 AUDIO
    TITLE "0:"
    INDEX 01 01:02:36
  TRACK 56 AUDIO
    TITLE "5:cjc082_0309"
    INDEX 01 01:03:10
  TRACK 57 AUDIO
    TITLE "0:"
    INDEX 01 01:04:27
  TRACK 58 AUDIO
    TITLE "6:cjc082_0310"
    INDEX 01 01:05:03
  TRACK 59 AUDIO
    TITLE "0:"
    INDEX 01 01:06:36
  TRACK 60 AUDIO
    TITLE "5:cjc082_0311"
    INDEX 01 01:07:14
  TRACK 61 AUDIO
    TITLE "0:"
    INDEX 01 01:08:27
  TRACK 62 AUDIO
    TITLE "6:cjc082_0312"
    INDEX 01 01:08:72
  TRACK 63 AUDIO
    TITLE "0:"
    INDEX 01 01:10:16
  TRACK 64 AUDIO
    TITLE "5:cjc082_0313"
    INDEX 01 01:10:63
  TRACK 65 AUDIO
    TITLE "0:"
    INDEX 01 01:12:46
  TRACK 66 AUDIO
    TITLE "6:cjc082_0314"
    INDEX 01 01:13:14
  TRACK 67 AUDIO
    TITLE "0:"
    INDEX 01 01:15:15
  TRACK 68 AUDIO
    TITLE "5:cjc082_0315"
    INDEX 01 01:15:62
  TRACK 69 AUDIO
    TITLE "0:"
    INDEX 01 01:17:04
  TRACK 70 AUDIO
    TITLE "6:cjc082_0316"
    INDEX 01 01:17:55
  TRACK 71 AUDIO
    TITLE "0:"
    INDEX 01 01:18:56
  TRACK 72 AUDIO
    TITLE "5:cjc082_0317"
    INDEX 01 01:19:30
  TRACK 73 AUDIO
    TITLE "0:"
    INDEX 01 01:20:51
  TRACK 74 AUDIO
    TITLE "6:cjc082_0318"
    INDEX 01 01:21:21
  TRACK 75 AUDIO
    TITLE "0:"
    INDEX 01 01:23:54
  TRACK 76 AUDIO
    TITLE "5:cjc082_0319"
    INDEX 01 01:24:22
  TRACK 77 AUDIO
    TITLE "0:"
    INDEX 01 01:25:55
  TRACK 78 AUDIO
    TITLE "6:cjc082_0320"
    INDEX 01 01:26:32
  TRACK 79 AUDIO
    TITLE "0:"
    INDEX 01 01:27:42
  TRACK 80 AUDIO
    TITLE "7:cjc082_0321"
    INDEX 01 01:29:07
  TRACK 81 AUDIO
    TITLE "0:"
    INDEX 01 01:39:31
